<svg xmlns="http://www.w3.org/2000/svg" viewBox="0 0 100 125"><path fill="crimson" d="M16.7 50.1c0 18.4 14.9 33.3 33.3 33.3 5.5 0 10.7-1.3 15.3-3.7l18 3.7-3.7-18.1c2.4-4.6 3.7-9.8 3.7-15.3 0-18.4-14.9-33.3-33.3-33.3S16.7 31.5 16.7 50.1zM19 50c0-17.2 13.9-31.2 31.1-31.1 17.2 0 31.1 13.9 31.1 31.1 0 5-1.2 9.8-3.5 14.3l-.4.7.1.7 3 14.7-14.8-3-.7-.1-.7.4C59.8 80 55 81.2 50 81.2c-17.2 0-31.1-14-31-31.2z"/><path fill="cadetblue" d="M50.7 57.5h-1.5c-.4 0-.6.3-.6.6v1.5c0 .4.3.6.6.6h1.5c.4 0 .6-.3.6-.6v-1.5c.1-.3-.2-.6-.6-.6zM54.7 41.3c-1.2-1.1-2.8-1.6-4.7-1.6s-3.4.5-4.5 1.5c-1 .9-1.6 2.1-1.9 3.7 0 .2 0 .4.1.5s.3.2.4.3l1.3.2c.3 0 .6-.2.7-.5.2-1.1.7-2 1.3-2.5.7-.7 1.6-1 2.7-1s2 .4 2.8 1.1c.8.7 1.1 1.6 1.1 2.6 0 .5-.1 1-.4 1.5-.3.5-.8 1.1-1.7 1.8-.9.8-1.5 1.3-1.8 1.7-.4.5-.8 1.1-1 1.6-.3.7-.4 1.6-.4 2.7 0 .4.3.6.6.6h1.1c.3 0 .6-.3.6-.6 0-.7.1-1.2.2-1.5.1-.4.3-.8.6-1.2.2-.3.8-.9 1.6-1.6 1.2-1.1 2-2 2.4-2.7s.6-1.6.6-2.5c.1-1.7-.5-3-1.7-4.1z"/></svg>